<svg viewBox="0 0 330 270" fill="currentColor" aria-hidden="true" class="h-6 w-auto sm:h-9 text-sun-300 shrink-0"><g transform="translate(0.000000,270.000000) scale(0.100000,-0.100000)"><path d="M1323 2689 c-5 -5 -94 -14 -199 -19 -258 -13 -461 -35 -574 -60 -52 -12 -113 -26 -135 -30 -348 -74 -495 -205 -377 -337 20 -23 89 -80 152 -127 63 -47 146 -109 183 -138 38 -29 87 -66 110 -81 52 -35 55 -59 7 -68 -19 -4 -60 -17 -90 -29 -30 -12 -64 -24 -75 -28 -45 -13 -142 -81 -173 -121 -38 -51 -43 -111 -13 -169 28 -54 218 -228 324 -297 41 -26 33 -39 -36 -59 -34 -10 -85 -28 -114 -42 -29 -13 -62 -28 -75 -33 -68 -27 -140 -117 -140 -176 0 -64 141 -234 252 -303 14 -9 52 -41 86 -71 99 -91 117 -105 167 -136 27 -17 68 -48 92 -71 66 -63 213 -158 264 -170 52 -13 102 -30 146 -50 17 -7 59 -15 95 -18 36 -3 79 -8 95 -10 17 -2 86 -7 155 -11 69 -3 145 -12 170 -20 67 -19 174 -19 203 0 21 14 27 14 39 2 16 -17 88 -16 130 1 15 6 55 9 95 5 81 -6 239 19 299 48 22 10 45 19 51 19 90 0 396 250 780 637 91 92 79 209 -31 291 -80 60 -105 74 -185 101 -42 15 -74 31 -72 36 2 6 79 89 172 185 92 96 175 183 184 193 21 23 21 140 0 165 -8 9 -30 35 -49 57 -19 22 -49 47 -68 56 -18 9 -67 32 -108 52 -81 38 -139 57 -182 57 -62 0 -52 13 124 175 81 74 97 98 105 150 2 11 6 35 9 53 6 31 2 38 -55 94 -88 85 -209 136 -476 202 -112 27 -416 73 -543 82 -51 4 -95 11 -98 16 -7 12 -609 9 -621 -3z m757 -120 c25 -6 95 -14 155 -18 61 -4 137 -13 170 -20 33 -7 94 -19 135 -27 126 -26 274 -71 339 -103 94 -47 159 -85 185 -111 29 -29 29 -29 0 -36 -16 -4 -42 -17 -59 -30 -101 -75 -354 -129 -745 -160 -107 -8 -231 -19 -275 -24 -123 -14 -839 -3 -959 15 -55 8 -129 15 -165 15 -36 0 -91 7 -121 15 -30 8 -72 15 -94 15 -45 0 -140 28 -331 98 -119 43 -210 115 -189 149 18 29 184 105 244 113 30 4 68 12 83 19 16 6 41 11 57 11 16 0 47 7 67 15 37 14 163 26 483 46 85 5 191 13 235 18 117 12 731 12 785 0z m-1484 -568 c5 -5 47 -14 94 -20 47 -5 119 -15 160 -20 211 -28 297 -34 675 -40 322 -6 435 -5 525 6 134 16 242 28 395 44 61 7 127 18 149 25 45 16 156 19 156 4 0 -27 -181 -154 -263 -184 -26 -10 -68 -29 -94 -43 -55 -29 -139 -55 -248 -78 -163 -33 -948 -6 -1100 39 -190 56 -266 94 -368 183 -20 18 -44 33 -52 33 -18 0 -67 45 -58 53 9 9 17 9 29 -2z m2206 -160 c13 -5 52 -18 88 -30 230 -72 328 -146 287 -217 -23 -40 -87 -86 -139 -100 -29 -8 -75 -22 -103 -30 -27 -8 -79 -21 -115 -30 -36 -8 -94 -22 -130 -31 -36 -9 -87 -20 -115 -24 -27 -5 -93 -15 -145 -24 -201 -33 -314 -44 -580 -55 -151 -7 -331 -15 -400 -18 -179 -8 -425 5 -515 28 -22 5 -62 10 -90 10 -27 0 -79 6 -115 14 -36 8 -103 22 -150 31 -158 31 -271 81 -333 148 -46 50 -46 55 1 98 36 33 66 50 147 84 22 9 55 23 73 31 18 8 42 14 52 14 11 0 37 9 57 20 51 27 66 26 133 -15 32 -19 60 -35 64 -35 4 0 23 -10 44 -23 20 -13 60 -28 87 -35 28 -7 82 -21 120 -31 45 -13 135 -24 250 -31 99 -6 207 -15 240 -20 81 -13 552 -5 651 10 98 16 271 71 324 105 22 14 42 25 46 25 3 0 29 15 57 34 74 49 171 106 179 106 4 0 17 -4 30 -9z m66 -595 c-129 -124 -188 -173 -262 -216 -35 -20 -83 -50 -107 -66 -146 -97 -364 -130 -796 -120 -164 4 -307 7 -318 7 -186 4 -423 87 -538 190 -29 25 -65 54 -82 63 -16 9 -42 24 -56 34 -14 9 -45 28 -67 42 -82 49 -47 61 107 36 47 -8 124 -20 171 -26 132 -18 582 -24 770 -10 91 6 251 15 355 20 105 4 219 13 255 18 36 6 115 18 175 27 183 26 334 58 430 89 68 23 61 6 -37 -88z m-2252 -191 c14 -13 48 -35 74 -48 26 -13 63 -40 83 -59 19 -20 48 -42 64 -50 88 -46 119 -64 131 -75 7 -7 23 -13 35 -13 12 0 39 -6 62 -14 119 -40 156 -47 280 -51 72 -2 191 -9 265 -15 117 -9 295 -7 405 7 17 2 84 7 150 11 66 5 133 13 148 20 16 7 40 12 54 12 14 0 37 6 51 14 15 7 67 32 115 56 74 35 154 91 291 203 25 21 52 14 166 -43 121 -59 155 -83 170 -120 22 -52 2 -74 -140 -157 -36 -21 -181 -56 -325 -77 -44 -7 -87 -15 -95 -19 -8 -3 -71 -13 -140 -22 -69 -9 -153 -21 -186 -26 -34 -6 -70 -10 -80 -8 -11 1 -30 -1 -44 -4 -14 -3 -227 -8 -475 -11 -450 -5 -450 -5 -675 25 -432 56 -605 103 -732 199 -118 88 -76 155 142 229 52 18 104 39 115 46 30 21 61 18 91 -10z m2284 -493 c0 -11 -96 -102 -150 -142 -25 -18 -58 -46 -75 -61 -16 -15 -61 -44 -100 -64 -38 -20 -99 -53 -135 -72 -198 -107 -395 -120 -1075 -73 -226 15 -450 101 -580 221 -33 31 -85 72 -116 92 -53 33 -76 54 -68 62 5 4 199 -21 219 -29 69 -26 339 -41 735 -42 390 -1 491 3 745 26 164 15 454 59 515 79 37 12 85 14 85 3z"></path></g></svg>