<?xml version="1.0" encoding="UTF-8" standalone="yes"?><svg xmlns="http://www.w3.org/2000/svg" version="1.2" width="256" height="256" baseProfile="tiny-ps"><title>Everybody Eats</title><path d="M0 0 C2.53831023 2.2488881 4.98301342 4.56545764 7.41015625 6.93359375 C8.58771484 8.03574219 8.58771484 8.03574219 9.7890625 9.16015625 C34.94529723 33.25225245 51.02518941 80.36449657 52.54296875 114.9609375 C52.4726802 141.14342278 49.53625092 165.68383534 31.41015625 185.93359375 C28.26848039 188.9439757 24.99778223 191.48106911 21.41015625 193.93359375 C20.70632812 194.46082031 20.0025 194.98804688 19.27734375 195.53125 C-7.26592489 214.67962276 -46.15527895 215.50253337 -77.58984375 215.93359375 C-79.08481856 215.96402122 -80.57977237 215.99549226 -82.07470703 216.02783203 C-86.16032197 216.11406986 -90.24568166 216.17344642 -94.33197021 216.2166748 C-95.93268627 216.23593214 -97.53334312 216.2613277 -99.1338501 216.2935791 C-114.9362401 216.59078174 -127.56210261 213.60209224 -141.58984375 205.93359375 C-142.96136664 205.23918306 -144.33601232 204.55087691 -145.71484375 203.87109375 C-146.33488281 203.5565625 -146.95492187 203.24203125 -147.59375 202.91796875 C-149.06696646 202.19145104 -150.55679301 201.49838996 -152.0546875 200.82421875 C-157.25642579 198.4149926 -160.95782158 195.95261793 -164.828125 191.73046875 C-166.70107942 189.82013829 -168.665303 188.3634866 -170.83984375 186.80859375 C-186.68617313 174.68130086 -199.26702588 153.30767747 -203.58984375 133.93359375 C-203.90008822 129.88886994 -203.92255605 125.86383524 -203.90234375 121.80859375 C-203.8981543 120.66366455 -203.89396484 119.51873535 -203.88964844 118.33911133 C-203.43572005 83.53873959 -191.26240377 57.08289192 -167.58984375 31.93359375 C-167.04199219 31.33289062 -166.49414062 30.7321875 -165.9296875 30.11328125 C-128.57973401 -9.34735757 -47.16740466 -37.63432438 0 0 Z " fill="#0D3A23" transform="translate(203.58984375,27.06640625)"></path><path d="M0 0 C12.24982978 -0.27650412 24.18401907 0.43521411 36.32421875 2.07080078 C37.07944824 2.16731934 37.83467773 2.26383789 38.61279297 2.36328125 C47.37037209 3.51048832 55.73120726 5.26958993 64.13671875 8.00830078 C64.88381104 8.2490332 65.63090332 8.48976563 66.40063477 8.73779297 C71.20648699 10.39646455 75.92672262 12.27580852 78.32421875 17.07080078 C78.81565595 20.2378405 79.07141606 22.03397743 78.32421875 25.07080078 C76.00320622 28.14107221 73.2240018 30.5569408 70.32421875 33.07080078 C69.31467287 34.06116289 68.31275855 35.05947044 67.32421875 36.07080078 C66.33421875 37.06080078 66.33421875 37.06080078 65.32421875 38.07080078 C66.62359375 38.13267578 67.92296875 38.19455078 69.26171875 38.25830078 C75.91277985 39.0031357 81.06414444 41.86722833 85.82421875 46.50830078 C87.70095071 49.71438455 88.54522051 51.31377085 88.32421875 55.07080078 C86.39445682 58.12345554 83.88207113 60.53874187 81.32421875 63.07080078 C80.35075556 64.05568093 79.37814662 65.04140593 78.40625 66.02783203 C75.73246114 68.72970691 73.03403564 71.40508579 70.32421875 74.07080078 C70.9171875 74.36728516 71.51015625 74.66376953 72.12109375 74.96923828 C74.85546875 76.33642578 77.58984375 77.70361328 80.32421875 79.07080078 C80.32421875 79.73080078 80.32421875 80.39080078 80.32421875 81.07080078 C80.94296875 81.17392578 81.56171875 81.27705078 82.19921875 81.38330078 C84.32421875 82.07080078 84.32421875 82.07080078 86.32421875 85.07080078 C87.01228316 89.24357847 87.32173742 91.61428019 84.89697266 95.15478516 C82.89668642 97.32343525 80.81260238 99.32860793 78.63671875 101.32080078 C77.91548828 102.01431641 77.19425781 102.70783203 76.45117188 103.42236328 C72.87672171 106.8303322 69.20921318 110.0188181 65.32421875 113.07080078 C64.62296875 113.83392578 63.92171875 114.59705078 63.19921875 115.38330078 C50.41828673 127.33069375 36.76030776 130.28744428 19.88671875 130.25830078 C18.85168716 130.2568959 18.85168716 130.2568959 17.79574585 130.25546265 C-23.54798568 130.13393211 -23.54798568 130.13393211 -39.67578125 117.07080078 C-40.00578125 116.41080078 -40.33578125 115.75080078 -40.67578125 115.07080078 C-41.64515625 114.55517578 -42.61453125 114.03955078 -43.61328125 113.50830078 C-48.02953792 111.0829795 -51.49670527 107.79317608 -55.17578125 104.38330078 C-58.04373537 101.73044322 -61.00150747 99.19831828 -63.984375 96.67626953 C-66.76062582 94.04107534 -68.48059048 91.96867834 -69.30078125 88.19580078 C-68.5039829 84.21180903 -67.10210788 82.97438163 -63.96484375 80.52783203 C-59.77649662 77.86187046 -55.26186219 75.94504001 -50.67578125 74.07080078 C-51.31644531 73.58611328 -51.95710938 73.10142578 -52.6171875 72.60205078 C-66.85236536 61.57031831 -66.85236536 61.57031831 -68.42578125 54.88330078 C-67.23503479 50.41800154 -64.69484097 48.26896969 -60.7734375 45.94189453 C-56.84820112 43.90016889 -52.88870871 42.43116285 -48.67578125 41.07080078 C-55.07260442 35.72567968 -61.51025729 30.64631667 -68.36328125 25.89501953 C-71.40866559 23.49266398 -73.35810755 21.44738682 -74.23828125 17.63330078 C-73.5514654 14.50447302 -72.2300906 13.15135237 -69.68359375 11.26220703 C-50.09161459 -0.36338372 -22.12881559 0.58552523 0 0 Z " fill="#ECF165" transform="translate(124.67578125,65.92919921875)"></path><path d="M0 0 C2.47646153 0.00538042 4.95274299 0.00000599 7.42919922 -0.00634766 C56.16314897 -0.03064553 56.16314897 -0.03064553 72.34716797 14.13037109 C62.24399081 25.40574008 41.14080761 25.23822232 26.91906738 26.01971436 C17.13154294 26.44082551 7.32946053 26.43021577 -2.46533203 26.44287109 C-4.16246841 26.4482489 -4.16246841 26.4482489 -5.89389038 26.45373535 C-18.3189493 26.47489454 -30.39063052 26.23658692 -42.65283203 24.13037109 C-44.52780292 23.85933629 -46.40279778 23.58846719 -48.27783203 23.31787109 C-56.82185682 21.69348315 -65.03684998 18.8674773 -71.65283203 13.13037109 C-70.65283203 10.13037109 -70.65283203 10.13037109 -67.40283203 8.13037109 C-56.33314287 3.00623936 -43.67080352 2.13686787 -31.65283203 1.13037109 C-30.58403809 1.04062012 -29.51524414 0.95086914 -28.4140625 0.85839844 C-18.93220621 0.14156144 -9.50502336 -0.02451206 0 0 Z " fill="#103C23" transform="translate(128.65283203125,71.86962890625)"></path><path d="M0 0 C5.67512623 2.35629393 10.37008694 4.34554074 12.87890625 10.1953125 C6.18198177 19.12454514 -8.03817506 20.04511416 -18.37109375 21.8203125 C-19.60182617 22.03196045 -20.83255859 22.2436084 -22.10058594 22.46166992 C-37.02449294 24.86823878 -52.02869956 25.65667562 -67.12109375 26.1953125 C-68.03906738 26.22995605 -68.95704102 26.26459961 -69.90283203 26.30029297 C-84.71113951 26.78974842 -99.52256305 25.40065341 -113.99609375 22.2578125 C-114.72691162 22.10022461 -115.45772949 21.94263672 -116.21069336 21.78027344 C-122.27707288 20.36589503 -127.27813277 18.10693483 -132.12109375 14.1953125 C-131.80698236 11.2636062 -131.213405 10.28044399 -129.01171875 8.25 C-123.55142587 4.36876479 -117.70242877 2.16814873 -111.12109375 1.1953125 C-107.5456418 2.1826248 -104.923508 3.52540612 -101.8046875 5.51171875 C-95.79506483 9.28194782 -89.59713753 9.76402404 -82.68359375 10.3203125 C-81.6575 10.4037793 -80.63140625 10.48724609 -79.57421875 10.57324219 C-70.58974492 11.22602869 -61.62508254 11.41291394 -52.62109375 11.4453125 C-50.64604858 11.45908936 -50.64604858 11.45908936 -48.63110352 11.47314453 C-35.85407016 11.43200526 -23.80337208 8.90027 -13.62109375 0.6953125 C-8.8416631 -2.67891349 -5.36459706 -1.74023966 0 0 Z " fill="#123E24" transform="translate(194.12109375,108.8046875)"></path><path d="M0 0 C1.69700541 1.10040195 3.36373756 2.24865307 5 3.4375 C9.72298364 6.85428347 14.11802359 9.9501312 19.75 11.625 C20.91789062 11.98464844 20.91789062 11.98464844 22.109375 12.3515625 C32.12360116 14.59799702 42.50417807 14.28782854 52.70874023 14.35009766 C54.68574827 14.36662539 56.66269733 14.39387323 58.6394043 14.43212891 C75.81107438 14.76133488 88.82153304 12.58993462 103 2 C103.54140625 1.43667969 104.0828125 0.87335938 104.640625 0.29296875 C106 -1 106 -1 108.5625 -1.0625 C113.46380544 0.45244896 118.07534545 2.65923944 122 6 C122.79296875 8.703125 122.79296875 8.703125 123 11 C103.57426299 24.85087569 70.60486226 23.56802256 47.75 23.4375 C46.63502136 23.43479095 45.52004272 23.43208191 44.37127686 23.42929077 C-6.37288489 23.24236684 -6.37288489 23.24236684 -22 10 C-21.62614385 7.51991199 -21.34669853 6.30519845 -19.43359375 4.62109375 C-6.32830908 -3.14975019 -6.32830908 -3.14975019 0 0 Z " fill="#133E24" transform="translate(83,146)"></path><path d="M0 0 C-11.5094079 12.37743587 -25.69394303 22.18048241 -43 23 C-51.33667368 23.25526452 -59.66261656 23.16336952 -68 23 C-69.22348145 22.98694824 -69.22348145 22.98694824 -70.47167969 22.97363281 C-84.91562384 22.78837214 -96.16514992 19.20003071 -107.37890625 10.0859375 C-109.82337155 8.14056571 -112.32348138 6.59719917 -115 5 C-115 4.67 -115 4.34 -115 4 C-112.77057252 4.14179038 -110.54146372 4.28859698 -108.3125 4.4375 C-107.07113281 4.51871094 -105.82976562 4.59992188 -104.55078125 4.68359375 C-101 5 -101 5 -98.81201172 5.50927734 C-95.02776539 6.16966414 -91.28594371 6.16205137 -87.45703125 6.16796875 C-86.62443283 6.17224884 -85.79183441 6.17652893 -84.93400574 6.18093872 C-82.22678284 6.19095483 -79.519738 6.19098441 -76.8125 6.1875 C-75.88783936 6.18656342 -74.96317871 6.18562683 -74.01049805 6.18466187 C-52.92454223 6.1382925 -32.56869764 5.24237197 -11.9140625 0.58911133 C-10.934375 0.3702124 -9.9546875 0.15131348 -8.9453125 -0.07421875 C-7.65391357 -0.37718872 -7.65391357 -0.37718872 -6.33642578 -0.6862793 C-3.89763753 -1.0137446 -2.31863812 -0.76495641 0 0 Z " fill="#123E24" transform="translate(195,133)"></path><path d="M0 0 C-12.38176139 11.37394361 -25.35434667 20.37084943 -42.875 20.265625 C-43.60259521 20.26753845 -44.33019043 20.2694519 -45.07983398 20.27142334 C-46.61263375 20.27277538 -48.14544535 20.26914805 -49.67822266 20.26074219 C-51.96674925 20.25015384 -54.25446817 20.26060571 -56.54296875 20.2734375 C-89.74534889 20.31015639 -89.74534889 20.31015639 -101.95703125 10.4140625 C-103.34025472 8.97609404 -104.67241314 7.48948769 -106 6 C-108.27152598 4.48875889 -110.57426544 3.26138197 -113 2 C-113 1.67 -113 1.34 -113 1 C-107.27324809 1.44411545 -101.64340519 2.05088862 -95.98046875 3.01953125 C-85.9972496 4.4573247 -76.00572312 4.34712229 -65.9375 4.3125 C-64.42187973 4.31126129 -64.42187973 4.31126129 -62.87564087 4.30999756 C-43.96981357 4.27449015 -24.31154973 4.22522507 -5.9309082 -0.71728516 C-3.69386139 -1.04482343 -2.13996742 -0.67502528 0 0 Z " fill="#103C23" transform="translate(193,170)"></path><path d="M0 0 C0.56283691 0.08564209 1.12567383 0.17128418 1.70556641 0.25952148 C4.34456801 0.65776495 6.98474917 1.0476278 9.625 1.4375 C10.95144531 1.63956055 10.95144531 1.63956055 12.3046875 1.84570312 C25.82112618 3.82489593 39.30411152 4.20322741 52.9375 4.1875 C54.15048264 4.18759064 54.15048264 4.18759064 55.38796997 4.18768311 C73.43146377 4.16855392 91.17934217 2.90319209 109 0 C105.80227413 4.6823843 102.46591308 6.72733586 97.5 9.125 C96.85546875 9.45886719 96.2109375 9.79273437 95.546875 10.13671875 C84.02067542 15.83280575 72.48038317 16.47473902 59.875 16.3125 C59.10131073 16.3065683 58.32762146 16.3006366 57.53048706 16.29452515 C19.25868832 15.9959561 19.25868832 15.9959561 6 4 C4.03003657 2.94205668 2.03729925 1.92163538 0 1 C0 0.67 0 0.34 0 0 Z " fill="#133F24" transform="translate(77,99)"></path></svg>