<svg width="89" height="89" viewBox="0 0 89 89" fill="none" xmlns="http://www.w3.org/2000/svg">
<path fill-rule="evenodd" clip-rule="evenodd" d="M61.3605 83.4879C61.7419 83.4449 62.1232 83.4019 62.5042 83.3576C68.1191 82.1817 74.909 80.1698 77.5441 77.6728C77.6826 77.3728 78.8 76.5583 79.903 75.7543C80.9677 74.9783 82.0189 74.212 82.1641 73.9273C82.6724 72.9306 83.2983 72.0614 83.9193 71.1991C84.6926 70.1253 85.4582 69.0621 85.9795 67.7768L86.0422 67.6222C87.0666 65.0983 88.1066 62.5359 88.3058 59.7655C88.4833 57.2865 88.6128 54.8039 88.7422 52.3219C88.7675 51.8351 88.7929 51.3483 88.8187 50.8616C88.8308 50.6265 88.7985 50.3892 88.7661 50.1512C88.7479 50.0176 88.7297 49.8838 88.7193 49.7502C88.2845 43.948 86.5814 38.4303 84.686 32.9749C84.0293 31.0871 83.2517 29.2404 82.4739 27.3932C82.0561 26.4009 81.6382 25.4084 81.2389 24.4093C80.1606 21.7122 78.7005 19.2372 76.9611 16.9121C75.3853 14.8057 73.5121 12.9771 71.5692 11.2157C69.966 9.76047 68.1594 8.58891 66.1821 7.70025C62.4695 6.03126 58.622 5.00546 54.5077 4.80344C48.3375 4.50087 42.3254 5.17545 36.4629 7.04119C30.7079 8.87153 25.4207 11.6633 20.4702 15.0654C13.1807 20.0756 7.39782 26.3983 3.471 34.3516C2.34381 36.6323 1.57114 38.9877 1.15838 41.4772C0.594437 44.8728 0.202195 48.294 0.0281119 51.7296C-0.127573 54.8188 0.357868 57.8089 1.62224 60.702C3.38687 64.7434 5.54865 68.5206 8.48796 71.8389C9.72854 73.2375 11.0071 74.5938 12.5847 75.6449C13.0454 75.9527 13.4483 76.3614 13.8276 76.7686C15.3247 78.3718 17.0926 79.514 19.2125 80.1698C20.0926 80.444 20.9903 80.8604 21.7062 81.4269C23.6783 82.9873 26.0362 83.673 28.3549 84.3418C30.0427 84.829 31.9012 85.0992 33.6377 84.9543C35.1735 84.8261 36.6961 84.8419 38.2195 84.8576C38.8438 84.8641 39.4683 84.8706 40.0938 84.8671C41.0405 84.8624 41.9868 84.8712 42.933 84.8801C45.1737 84.901 47.4139 84.922 49.6567 84.7625C50.0877 84.7318 50.5187 84.7032 50.9494 84.6746C52.9508 84.5416 54.9478 84.4089 56.9333 84.071C58.3989 83.8215 59.88 83.6546 61.3605 83.4879ZM61.9727 27.2721C60.2776 26.8699 58.5472 26.5609 56.8079 26.3511C56.646 26.3329 56.4839 26.3069 56.3209 26.2807C55.8309 26.2021 55.3327 26.1222 54.8062 26.249C54.6198 26.2943 54.3615 26.2166 54.0683 26.1284C53.8145 26.052 53.5345 25.9678 53.2527 25.9488C52.9562 25.9303 52.6595 25.911 52.3626 25.8916L52.3625 25.8916C51.0212 25.8041 49.6764 25.7164 48.3296 25.7069C47.2234 25.6988 46.1157 25.7482 45.0057 25.7977C44.5154 25.8196 44.0246 25.8415 43.5333 25.8584C43.0363 25.8758 42.5335 25.8797 42.0305 25.8836C40.9285 25.8922 39.8256 25.9007 38.7812 26.0508C38.0823 26.1515 37.4142 26.1559 36.7526 26.1602H36.7525C36.1695 26.164 35.5915 26.1677 35.0019 26.2374L34.9546 26.2429C33.6341 26.3986 32.2772 26.5586 30.9779 26.6046L30.8825 26.6078C29.9566 26.6386 29.0367 26.6692 28.1361 26.8524C27.8758 26.906 27.6278 26.9818 27.3767 27.0586L27.3767 27.0587C27.0676 27.1532 26.7537 27.2492 26.4057 27.3071C26.2966 27.3251 26.1837 27.3403 26.0696 27.3557L26.0694 27.3558C25.5728 27.4228 25.0506 27.4933 24.6959 27.8085C24.6605 27.8405 24.3922 27.8493 24.2537 27.8434C23.5933 27.8114 22.8445 28.0329 22.3965 28.3127C22.0966 28.499 21.8093 28.622 21.5307 28.7412C21.4039 28.7955 21.2789 28.849 21.1554 28.9074C20.8842 29.0327 20.6277 29.1697 20.4095 29.3125C20.1914 29.4524 20.0145 29.6069 19.9202 29.7206C19.8859 29.7613 19.8676 29.7967 19.8597 29.8119C19.8574 29.8163 19.856 29.819 19.8553 29.8197C19.8553 29.8197 19.8494 29.8197 19.8553 29.8284C19.858 29.8311 19.857 29.8357 19.8557 29.8415C19.8541 29.8483 19.8521 29.8569 19.8553 29.8663C19.8671 29.8867 19.8701 29.9071 19.873 29.9275C19.8876 29.9486 19.8975 29.9706 19.908 29.994L19.9081 29.994L19.9081 29.994C19.9252 30.0321 19.9442 30.0741 19.988 30.1228C20.1472 30.3531 20.4361 30.6417 20.7751 30.904C21.1259 31.1605 21.5091 31.417 21.9395 31.6211C22.4168 31.8602 22.9507 32.0373 23.4774 32.212C23.9266 32.361 24.3706 32.5083 24.7696 32.6908C25.648 33.093 26.5501 33.3029 27.4758 33.507C27.5867 33.5316 27.7008 33.5621 27.8166 33.593C28.2484 33.7084 28.7017 33.8294 29.0854 33.6731C29.1325 33.6527 29.33 33.6935 29.4155 33.7314C30.3332 34.1318 31.3013 34.1723 32.2776 34.2131C32.8506 34.237 33.4264 34.2611 33.9966 34.3581C35.5204 34.6171 37.1061 34.6872 38.674 34.7565L38.8932 34.7662C38.9921 34.7701 39.0926 34.7786 39.1936 34.7871C39.5379 34.8161 39.8882 34.8456 40.205 34.6991C40.3495 34.6321 40.8094 34.6379 41.0275 34.6991C41.8761 34.9227 42.7613 34.9096 43.6469 34.8964C44.0196 34.8908 44.3924 34.8852 44.7626 34.8973C45.3021 34.915 45.8417 34.9034 46.382 34.8919C47.2706 34.8729 48.1613 34.8538 49.0577 34.9644C49.6679 35.0372 50.5022 35.0576 51.2186 34.7632C51.416 34.6824 51.7507 34.6821 52.0991 34.6818C52.3283 34.6816 52.5633 34.6814 52.7692 34.6583C52.9701 34.6364 53.1664 34.5926 53.3618 34.549C53.5823 34.4998 53.8016 34.4509 54.025 34.4339C54.2596 34.4168 54.498 34.4443 54.7377 34.472L54.7378 34.472L54.7378 34.472L54.7379 34.472L54.738 34.472L54.738 34.472C54.8657 34.4868 54.9937 34.5016 55.1217 34.5097C55.2307 34.5155 55.3634 34.5097 55.4695 34.4834C56.5467 34.2406 57.637 34.1777 58.727 34.1147C59.7042 34.0583 60.6813 34.0019 61.6484 33.8159L61.9451 33.7585C62.8695 33.5797 63.7947 33.4007 64.7054 33.198C65.7107 32.9706 66.71 32.717 67.6239 32.376C67.7782 32.3177 67.9304 32.2575 68.0789 32.1967C68.2842 32.015 68.5094 31.8665 68.7338 31.7185C68.979 31.5569 69.2233 31.3958 69.4398 31.1926C69.5705 31.0687 69.8989 31.0974 70.152 31.1939C70.2292 31.1456 70.2997 31.1146 70.3714 31.1255C70.4746 31.1401 70.5984 31.2742 70.5807 31.5803C70.5542 32.0291 70.2741 32.5072 69.9174 32.8103C69.8427 32.8747 69.767 32.9366 69.6905 32.9963C69.6111 33.0943 69.5227 33.1882 69.4222 33.2767C68.8589 33.7715 68.3149 34.287 67.7712 34.8021L67.771 34.8024C67.5494 35.0124 67.3279 35.2223 67.1051 35.4307V35.4366C66.9235 35.606 66.7411 35.7746 66.5586 35.9433C66.3059 36.1769 66.0531 36.4105 65.8026 36.6463C65.8567 36.6544 65.9106 36.6631 65.9642 36.6725C66.1439 36.6994 66.3252 36.7231 66.5074 36.7469L66.5084 36.7471L66.5085 36.7471C67.3127 36.8523 68.1335 36.9597 68.8974 37.3516C68.9834 37.3941 69.0797 37.426 69.1768 37.4582C69.4062 37.5341 69.6396 37.6114 69.7494 37.8326C69.77 37.8763 69.885 37.9433 69.9498 37.9521C70.6544 38.0832 71.3265 38.3835 71.9427 38.8265C72.5529 39.2783 73.1336 39.8438 73.5611 40.6308C73.6207 40.7571 73.6742 40.8879 73.7281 41.0201L73.7282 41.0201L73.7282 41.0202L73.7282 41.0203L73.7282 41.0203L73.7283 41.0204C73.749 41.0711 73.7698 41.122 73.791 41.173L73.8093 41.2491C73.8507 41.4215 73.8921 41.5937 73.9178 41.7792C73.9178 41.8273 73.9189 41.8763 73.9201 41.9256V41.9259C73.9242 42.1008 73.9284 42.2808 73.8824 42.4467C73.8618 42.5546 73.8352 42.6624 73.8087 42.7732C73.7733 42.8694 73.7321 42.9656 73.6878 43.0618C73.3311 43.8254 72.7769 44.3064 72.1962 44.6299C72.105 44.7591 72.0002 44.8756 71.8857 44.9809C71.7631 45.1989 71.6156 45.407 71.4179 45.5947C70.8691 46.1167 70.3396 46.6592 69.8105 47.2015L69.8102 47.2018C69.5947 47.4225 69.3793 47.6432 69.1627 47.8625V47.8596C68.9747 48.0497 68.7854 48.2391 68.596 48.4286L68.5938 48.4308C68.1322 48.8927 67.67 49.3552 67.223 49.83C67.4148 49.8711 67.6049 49.9143 67.7919 49.9612C67.9533 50.0033 68.117 50.0428 68.2818 50.0826L68.2819 50.0826L68.282 50.0826C69.051 50.268 69.8447 50.4593 70.5365 50.9609C70.6148 51.0204 70.7073 51.0687 70.8003 51.1174C71.0083 51.2261 71.2192 51.3363 71.2823 51.576C71.2941 51.6226 71.3943 51.7101 71.4533 51.7334C72.1136 51.9957 72.7239 52.4767 73.1513 53.2083L73.2899 53.5027C73.337 53.5989 73.3783 53.7009 73.4048 53.8146L73.4903 54.1439L73.4934 54.1737L73.4934 54.1745L73.4935 54.1751C73.5042 54.2809 73.5147 54.3846 73.5228 54.4908C73.5375 54.6016 73.5287 54.7269 73.5139 54.8522C73.5086 54.8888 73.5049 54.9258 73.5013 54.9629L73.5012 54.9631L73.5012 54.9632C73.4925 55.0502 73.4839 55.137 73.455 55.2166C73.4196 55.3332 73.3813 55.4469 73.3429 55.5605C73.3181 55.6342 73.2834 55.698 73.2484 55.7624C73.2293 55.7974 73.2102 55.8326 73.1926 55.8695C72.8182 56.5399 72.3406 57.0005 71.8542 57.3998C71.6862 57.5351 71.514 57.6582 71.3373 57.769C71.2117 57.9666 71.0634 58.1544 70.8726 58.3238C70.3232 58.8133 69.7903 59.3245 69.2579 59.8352C69.0104 60.0726 68.7631 60.3099 68.5142 60.5449L68.5171 60.5391C68.3222 60.7236 68.1263 60.907 67.9305 61.0903L67.9304 61.0904L67.9303 61.0905L67.9302 61.0907L67.93 61.0908C67.4301 61.5588 66.9305 62.0266 66.4477 62.5124C66.3825 62.5776 66.3109 62.6369 66.2389 62.6966C66.0342 62.8662 65.8261 63.0386 65.752 63.3577C65.721 63.4769 65.5765 63.5383 65.4106 63.6087C65.2765 63.6657 65.1283 63.7285 65.015 63.8328C64.4245 64.399 63.7682 64.8587 63.1085 65.3208C63.0041 65.394 62.8995 65.4672 62.7952 65.5409C62.0552 66.0627 61.3035 66.5786 60.4869 66.9954C60.0765 67.2049 59.6367 67.3584 59.2003 67.5107C58.7746 67.6593 58.3521 67.8068 57.9635 68.0039C57.526 68.2147 57.0791 68.2745 56.6339 68.3341C56.3712 68.3692 56.1091 68.4043 55.8498 68.4703C55.1069 68.6773 54.311 68.7968 53.5533 68.7501C53.442 68.7402 53.3313 68.7292 53.2212 68.7182C52.7833 68.6746 52.3536 68.6318 51.9202 68.6598C51.7821 68.6726 51.6525 68.7004 51.5239 68.728C51.3312 68.7693 51.1406 68.8102 50.9267 68.7997C50.8583 68.7954 50.7878 68.7861 50.7166 68.7768C50.4503 68.7418 50.1723 68.7053 49.9421 68.9192C49.9185 68.9425 49.7741 68.8871 49.7004 68.8463C49.3525 68.651 48.9221 68.651 48.6244 68.7676C48.3706 68.8665 48.1457 68.8617 47.9169 68.8569L47.8538 68.8556L47.8137 68.8551C47.0796 68.8492 46.3456 68.8347 45.6145 68.7851C45.3307 68.7655 45.0485 68.7232 44.7662 68.681L44.7661 68.681C44.503 68.6416 44.2399 68.6022 43.9755 68.5811C43.7623 68.5637 43.5429 68.5682 43.3246 68.5726C42.9573 68.5802 42.5929 68.5876 42.2656 68.4907C41.8136 68.3591 41.3893 68.3375 40.9309 68.3142L40.7899 68.3069L40.6885 68.3013C40.6029 68.2989 40.5151 68.284 40.4269 68.2691C40.1931 68.2295 39.9565 68.1895 39.751 68.3799C39.7245 68.4033 39.6066 68.3916 39.5565 68.3595C39.1379 68.1176 38.7075 68.0885 38.2594 68.0681C38.0353 68.0651 37.8113 68.0535 37.5872 68.0331C37.3632 68.0127 37.1421 67.9748 36.9299 67.8932C36.5538 67.7537 36.1684 67.6311 35.7815 67.5079C35.2707 67.3453 34.7572 67.1819 34.259 66.9779C34.203 66.9548 34.1486 66.9264 34.094 66.898L34.0939 66.898L34.0939 66.898C33.9214 66.8082 33.7474 66.7176 33.5191 66.7885C33.4129 66.8234 33.1712 66.7098 33.0798 66.6048C32.7707 66.2612 32.3799 66.0478 31.9891 65.8343C31.75 65.7037 31.5109 65.5731 31.2904 65.4127C31.1372 65.3004 30.9787 65.1924 30.8196 65.084C30.3055 64.7335 29.7855 64.3791 29.4185 63.8649C29.2269 63.5851 28.9114 63.2615 28.4398 63.2149C28.3057 63.2023 28.1739 63.071 28.0375 62.9351C27.9519 62.8497 27.8645 62.7626 27.7735 62.7019C27.6852 62.6437 27.5854 62.6017 27.4858 62.5598L27.4858 62.5598C27.366 62.5094 27.2467 62.4592 27.1486 62.3812C27.047 62.3002 26.9766 62.1833 26.9054 62.0654L26.9054 62.0653C26.8691 62.0052 26.8327 61.9447 26.7919 61.8886C26.7565 61.8391 26.7005 61.7924 26.6474 61.7691C26.0196 61.4829 25.5527 61.01 25.0845 60.5357C24.7611 60.2082 24.4372 59.88 24.0591 59.6121C23.1305 58.9534 22.2638 58.1955 21.4089 57.4377C21.2381 57.2868 21.0709 57.1279 20.9271 56.955C20.461 56.5139 20.009 56.0139 19.6843 55.3244C19.593 55.0796 19.5016 54.8289 19.4809 54.552L19.4574 54.348C19.4574 54.2751 19.4632 54.2022 19.4691 54.1294L19.4717 54.0971C19.4825 53.9614 19.4935 53.8224 19.5399 53.7009L19.5436 53.6895L19.5543 53.6559L19.5731 53.5951L19.5731 53.595L19.5731 53.5949C19.6042 53.4932 19.6355 53.3908 19.6814 53.3045C19.7433 53.185 19.8082 53.0684 19.876 52.9547L19.8906 52.9353C20.0337 52.7456 20.1852 52.5447 20.3506 52.4038C21.0257 51.7742 21.7509 51.404 22.4702 51.0659C23.1924 50.7365 23.9176 50.4654 24.6398 50.2002C25.1204 50.0265 25.601 49.9612 26.0792 49.8963C26.1978 49.8802 26.3162 49.8641 26.4345 49.8464C26.3697 49.7848 26.3054 49.7227 26.241 49.6607L26.2407 49.6604L26.24 49.6598C25.9122 49.3436 25.5836 49.0269 25.2029 48.7719C24.2684 48.1452 23.3929 47.4194 22.5321 46.6907C22.2804 46.4774 22.0345 46.2486 21.8578 45.9815C21.638 45.8381 21.429 45.6759 21.2379 45.4869C20.9136 45.1546 20.5894 44.8107 20.3123 44.3763C20.041 43.9391 19.8258 43.4086 19.817 42.8082C19.817 42.4992 19.8819 42.1902 19.9968 41.925C20.1088 41.6597 20.2533 41.4265 20.4125 41.2283C20.7309 40.829 21.0905 40.5375 21.4561 40.2868C22.1872 39.7972 22.9389 39.459 23.6906 39.1442C24.4423 38.8353 25.2 38.5671 25.9517 38.3077C26.4059 38.1518 26.8584 38.0801 27.3093 38.0168L27.2901 38.0162C27.1569 38.0126 27.0193 37.8919 26.8771 37.7672C26.7895 37.6903 26.7001 37.6119 26.6091 37.5586C26.5189 37.5067 26.4177 37.4724 26.317 37.4383L26.317 37.4383C26.1969 37.3976 26.0776 37.3572 25.9782 37.2875C25.8751 37.2163 25.8003 37.1058 25.7249 36.9945C25.686 36.9371 25.6469 36.8795 25.6038 36.8269C25.5655 36.7803 25.5095 36.7395 25.4535 36.7191C24.8213 36.4815 24.3373 36.0486 23.852 35.6144C23.5157 35.3137 23.1788 35.0123 22.7915 34.7749C21.8422 34.1919 20.949 33.504 20.0676 32.8191C19.9198 32.7039 19.7742 32.5834 19.6422 32.4529C19.1735 32.1461 18.7106 31.7827 18.3077 31.2538C18.0659 30.9098 17.833 30.4814 17.8094 29.9509C17.7475 29.4262 17.9952 28.8578 18.2723 28.5197C18.5523 28.1612 18.8678 27.9192 19.1802 27.7123C19.4927 27.5053 19.8082 27.3392 20.1236 27.1934C20.7544 26.902 21.3853 26.6775 22.0191 26.4793C23.2838 26.0858 24.5514 25.7943 25.8131 25.5174C26.0293 25.4703 26.2453 25.4224 26.4613 25.3745L26.4625 25.3743C27.7835 25.0813 29.1039 24.7886 30.4591 24.6809C30.6529 24.6657 30.8481 24.6361 31.0443 24.6063C31.5287 24.5327 32.0191 24.4582 32.5079 24.5992C32.6148 24.6297 32.8454 24.5651 33.1028 24.493C33.314 24.4338 33.5433 24.3696 33.7372 24.3486C34.6931 24.2467 35.6585 24.187 36.6206 24.1275L36.9564 24.1066C37.9274 24.0478 38.8984 24.0075 39.8685 23.9673L39.8687 23.9673L39.8697 23.9672C40.3896 23.9457 40.9092 23.9241 41.4284 23.8997C41.8741 23.8782 42.3169 23.8364 42.7601 23.7945L42.7602 23.7945C43.2198 23.7511 43.6797 23.7077 44.1435 23.6869C45.0957 23.6461 46.0538 23.6432 47.0148 23.6782C47.8321 23.7076 48.644 23.7753 49.4569 23.8431L49.457 23.8431L49.4571 23.8431L49.4572 23.8431L49.4572 23.8431L49.4573 23.8431L49.4575 23.8431L49.4577 23.8431L49.4578 23.8431L49.458 23.8431L49.4582 23.8432C49.8529 23.8761 50.2478 23.909 50.6437 23.9376C51.0242 23.9641 51.4109 23.9799 51.7982 23.9958H51.7982C52.6862 24.0321 53.5772 24.0685 54.4024 24.2349C55.441 24.4422 56.4835 24.5952 57.5253 24.7481L57.5254 24.7481C58.6955 24.9198 59.8646 25.0914 61.0264 25.3396C63.2049 25.8235 65.3717 26.3977 67.4913 27.2751C68.0956 27.5257 68.6351 27.8697 69.1451 28.2603C69.6521 28.6596 70.1385 29.0968 70.5719 29.7031C70.79 29.9742 70.8048 30.4843 70.6691 30.7758C70.507 31.0906 70.2889 31.178 70.165 31.0818C70.1179 31.0468 70.0619 30.9769 70.0412 30.9098C69.8408 30.4755 69.4222 30.1928 68.977 29.9363C68.748 29.8084 68.5056 29.6864 68.2503 29.558C67.9995 29.4319 67.7365 29.2995 67.4618 29.1493C65.805 28.2603 63.8771 27.7181 61.9668 27.2663L61.9727 27.2721ZM26.4845 35.159C26.6407 35.2467 26.7999 35.329 26.959 35.4111C27.4162 35.6473 27.8721 35.8828 28.2511 36.2469C28.7994 36.2906 29.2298 36.6695 29.5511 36.996C30.1053 37.5761 30.7834 38.0162 31.4968 38.3747C32.1335 38.696 32.7959 38.9574 33.457 39.2183L33.7048 39.3162C35.22 39.9108 36.8385 40.2315 38.4569 40.418C38.5592 40.4288 38.6578 40.4161 38.7575 40.4033C38.9278 40.3814 39.101 40.3592 39.3 40.453C39.5167 40.5454 39.7808 40.5349 40.0549 40.524H40.055C40.1612 40.5198 40.269 40.5155 40.376 40.5171C40.4831 40.5199 40.5923 40.5166 40.7015 40.5133C40.9411 40.5061 41.1812 40.499 41.4019 40.555C42.3261 40.7855 43.2631 40.7874 44.2 40.7893H44.2001C44.614 40.7901 45.0278 40.791 45.4406 40.8115C46.779 40.8786 48.1232 40.9427 49.4616 40.9048C49.8655 40.8902 50.2841 40.8582 50.6791 40.8232C51.0682 40.7882 51.4574 40.7707 51.8494 40.7794C51.959 40.7861 52.0685 40.7708 52.1786 40.7553C52.4064 40.7235 52.6369 40.6912 52.8753 40.8523C52.934 40.8938 53.0529 40.8342 53.1836 40.7688C53.2825 40.7192 53.3882 40.6663 53.4796 40.6512L53.5874 40.6349L53.7307 40.6137L53.7309 40.6136L53.7312 40.6136C53.9113 40.587 54.0905 40.5606 54.2697 40.5288L54.3553 40.5157L54.3555 40.5156C54.5916 40.4796 54.8257 40.4438 55.0597 40.3918C55.7879 40.2548 56.5101 40.0682 57.2088 39.8263C57.4765 39.7252 57.7266 39.5893 57.9761 39.4538L57.9762 39.4537L57.9763 39.4537L57.9763 39.4537C58.1224 39.3743 58.2683 39.295 58.4175 39.2229C58.6293 39.1269 58.8412 39.028 59.053 38.9291L59.0542 38.9285C59.2694 38.8382 59.4846 38.7449 59.6998 38.6487C59.8354 38.5904 59.974 38.535 60.1125 38.4826L60.5223 38.3077C60.7994 38.1969 61.0677 38.0687 61.3271 37.9229C61.5784 37.7852 61.81 37.6093 62.0396 37.435C62.3057 37.233 62.5691 37.033 62.8571 36.8969C62.8769 36.8882 62.8835 36.8892 62.8905 36.8903C62.8929 36.8907 62.8954 36.8911 62.8983 36.8911C62.9095 36.8866 62.936 36.8688 62.9597 36.8528L62.9598 36.8527L62.9809 36.8386L63.1607 36.7133C63.2786 36.6287 63.3936 36.5413 63.5086 36.448C63.7356 36.2673 63.9508 36.0749 64.163 35.8796C64.3327 35.7223 64.4992 35.5626 64.6655 35.4031L64.667 35.4016C64.7759 35.2971 64.8848 35.1927 64.9945 35.089C64.6905 35.1585 64.3813 35.2125 64.0657 35.2471C63.9261 35.2617 63.7821 35.2942 63.6379 35.3266C63.3223 35.3977 63.0055 35.469 62.7303 35.355C62.6743 35.3316 62.4915 35.3462 62.409 35.3754C61.0243 35.8746 59.5388 35.9871 58.0669 36.0985C57.6054 36.1334 57.1453 36.1682 56.69 36.2148C56.1288 36.2711 55.5757 36.3538 55.0239 36.4362C53.9756 36.5928 52.9319 36.7487 51.8465 36.722C50.9562 37.0485 49.8831 37.0397 48.9663 36.9814C47.345 36.8794 45.7295 36.8794 44.1111 36.8882C42.4897 36.8969 40.8595 36.9056 39.2381 36.8065C35.9511 36.6083 32.6553 36.3373 29.3919 35.7572C29.2007 35.723 29.0148 35.7089 28.8275 35.6948C28.4718 35.6679 28.1111 35.6406 27.6998 35.4745C27.3515 35.3318 26.9235 35.2442 26.4845 35.159ZM28.6985 38.9949L28.6767 39.0074L28.6767 39.0075L28.6766 39.0075C28.1579 39.3058 27.6416 39.6026 26.9982 39.7709C25.651 40.1294 24.3274 40.6046 23.16 41.2196V41.2021C22.6559 41.4761 22.1695 41.7851 21.8452 42.1261C21.686 42.2952 21.5799 42.4671 21.5327 42.6041L21.5248 42.6403C21.5125 42.6955 21.5013 42.7456 21.5062 42.7936C21.5028 42.8087 21.5092 42.8307 21.5158 42.8532C21.5206 42.8698 21.5256 42.8867 21.5268 42.9014C21.5296 42.9132 21.5312 42.925 21.5328 42.9369C21.5364 42.9632 21.54 42.9899 21.5563 43.018L21.5601 43.0298C21.5976 43.1439 21.642 43.2791 21.7332 43.4115L21.7467 43.4272L21.7608 43.4438C21.8067 43.4976 21.8526 43.5514 21.9189 43.5952C22.0014 43.6447 22.0958 43.6855 22.2019 43.7059C22.3139 43.7234 22.3935 43.84 22.4819 43.9887C22.5021 44.0139 22.5222 44.0405 22.5427 44.0676L22.5428 44.0677L22.5428 44.0677C22.6335 44.1875 22.7322 44.3178 22.874 44.3938C23.7879 44.9185 24.8344 45.3703 25.9222 45.6909C26.818 45.9517 27.7454 46.1129 28.6741 46.2742L28.6744 46.2743L28.6746 46.2743L28.6749 46.2744L28.6751 46.2744L28.6754 46.2744C28.8464 46.3042 29.0176 46.3339 29.1885 46.3643C29.4888 46.4174 29.7912 46.4798 30.0946 46.5424L30.0947 46.5424C30.8906 46.7066 31.693 46.8722 32.4784 46.8744C32.9728 46.8713 33.4312 46.959 33.8858 47.046L33.8859 47.046C34.2933 47.124 34.6978 47.2015 35.1228 47.2125L35.2096 47.2154H35.2097C36.1316 47.2464 37.0789 47.2783 37.9734 47.4253L38.1216 47.4498C38.744 47.5532 39.3646 47.6563 39.9928 47.6293C40.1699 47.6207 40.3429 47.591 40.5179 47.561L40.518 47.561C40.7593 47.5196 41.0044 47.4776 41.2692 47.4894C41.3558 47.4924 41.445 47.4997 41.5352 47.5071C41.8873 47.5361 42.2553 47.5664 42.5486 47.3436C42.5811 47.3203 42.7697 47.3699 42.867 47.4049C43.3269 47.5797 43.8929 47.5652 44.2732 47.4282C44.5783 47.318 44.8555 47.3062 45.1376 47.2942L45.2056 47.2913C45.2445 47.2895 45.2835 47.2876 45.3227 47.2853L45.7987 47.2588C46.5954 47.2142 47.3982 47.1692 48.1969 47.1425C48.5498 47.1325 48.9033 47.1407 49.2569 47.149C49.6241 47.1575 49.9913 47.1661 50.3578 47.1542C50.6444 47.1431 50.9362 47.1082 51.2265 47.0735C51.6974 47.0173 52.1642 46.9616 52.5982 47.0084C53.3028 47.0813 53.9661 47.0143 54.6441 46.9414C54.7346 46.9318 54.8295 46.929 54.9254 46.9261C55.2386 46.9167 55.5624 46.9071 55.779 46.6616C55.8056 46.6324 55.95 46.6179 56.0178 46.6324C56.7151 46.7799 57.3641 46.6068 58.0171 46.4326C58.4352 46.321 58.855 46.2091 59.2901 46.1806C60.3133 46.1159 61.3366 45.9065 62.3496 45.6992C62.4776 45.673 62.6055 45.6468 62.7333 45.621C62.7971 45.6087 62.8626 45.5996 62.9285 45.5904C63.176 45.5557 63.4284 45.5204 63.6147 45.3178C63.6972 45.2275 64.0127 45.1546 64.1748 45.1692C64.8104 45.2374 65.4148 45.0637 66.0144 44.8914C66.2602 44.8208 66.5053 44.7504 66.7513 44.697C67.1965 44.598 67.6244 44.4553 68.0511 44.3131L68.0512 44.313C68.5539 44.1454 69.0551 43.9783 69.5814 43.8837C69.9882 43.808 70.5424 43.6156 70.7959 43.1463C70.8629 43.0332 71.0176 42.9408 71.1769 42.8456C71.3051 42.769 71.4363 42.6906 71.527 42.5983C71.5913 42.5188 71.6361 42.4297 71.6792 42.344L71.6921 42.3185C71.7034 42.2466 71.7323 42.1817 71.7557 42.129L71.7558 42.1289L71.7558 42.1288L71.7558 42.1287L71.762 42.1148L71.7689 42.0991L71.7746 42.0853C71.7835 42.062 71.8012 42.0416 71.8247 42.0241L71.8631 41.9978C71.8631 41.9978 71.8778 41.9833 71.8896 41.9774L71.9043 41.9682C71.9443 41.9432 71.9944 41.9119 72.0075 41.8783C72.0089 41.8754 72.0103 41.8724 72.0119 41.8695L72.0141 41.8654C72.0255 41.8439 72.037 41.8225 72.0075 41.7909C71.978 41.7501 71.9574 41.7151 71.9427 41.6772C71.9348 41.6571 71.9186 41.6369 71.9021 41.6163C71.8875 41.5982 71.8727 41.5797 71.8631 41.5606C71.8471 41.5196 71.8139 41.4753 71.7789 41.4284C71.7492 41.3886 71.718 41.347 71.695 41.3041C71.665 41.261 71.63 41.2172 71.594 41.1722C71.5521 41.12 71.509 41.0661 71.471 41.0097C71.4182 40.9576 71.3696 40.903 71.3203 40.8477L71.3201 40.8475C71.2758 40.7978 71.2309 40.7475 71.1821 40.6978C70.7635 40.2723 70.2034 39.8613 69.5607 39.6019C69.3792 39.5214 69.189 39.4505 68.9978 39.3793C68.8567 39.3268 68.7151 39.274 68.5761 39.2171C68.4249 39.1681 68.2761 39.1141 68.127 39.0599L68.1268 39.0598L68.1266 39.0597C67.9386 38.9914 67.7501 38.9229 67.5561 38.8644C67.2141 38.7478 66.8663 38.6341 66.5155 38.5321C66.2206 38.4382 65.9214 38.3548 65.6217 38.2712L65.4601 38.2261C65.1323 38.1355 64.8013 38.0399 64.4936 37.9145C64.4483 37.9891 64.4123 38.0739 64.39 38.1736C64.3782 38.2261 64.3428 38.2669 64.2898 38.3018C64.2653 38.3174 64.2408 38.334 64.2157 38.351C64.1985 38.3627 64.181 38.3745 64.163 38.3864C64.107 38.4155 64.0598 38.433 64.0215 38.4447L63.9714 38.4601C63.8261 38.5045 63.6717 38.5518 63.5528 38.6458C62.8364 39.2054 62.0464 39.6689 61.2534 40.1149C61.1207 40.1906 60.9881 40.2672 60.8554 40.344L60.8547 40.3444L60.854 40.3448C60.2206 40.7112 59.5829 41.0801 58.9009 41.3595C58.4944 41.5287 58.0675 41.6505 57.6445 41.7713C57.2147 41.8939 56.7889 42.0155 56.3922 42.1844C55.9736 42.3684 55.5505 42.4042 55.1304 42.4398C54.8584 42.4628 54.5875 42.4857 54.3198 42.5487C53.9543 42.6304 53.5799 42.6974 53.2025 42.7411C52.8252 42.7703 52.4479 42.7965 52.0794 42.7499C51.936 42.7366 51.7936 42.7198 51.6519 42.7031C51.2635 42.6573 50.88 42.6121 50.4934 42.642C50.3607 42.6517 50.2316 42.6807 50.1014 42.7099L50.1014 42.7099C49.9191 42.7508 49.7347 42.7921 49.5353 42.7819C49.4668 42.7782 49.3965 42.7692 49.3253 42.76C49.0657 42.7268 48.7958 42.6922 48.5713 42.9073C48.5477 42.9306 48.4062 42.8752 48.3355 42.8344C47.9965 42.642 47.5749 42.642 47.2831 42.7615C47.033 42.862 46.8106 42.8577 46.5812 42.8534C46.551 42.8528 46.5206 42.8522 46.4901 42.8519C45.7737 42.8519 45.0544 42.8402 44.3381 42.7936C44.0603 42.7755 43.7842 42.7347 43.5079 42.694C43.2506 42.656 42.9932 42.618 42.7344 42.5983C42.524 42.5819 42.3083 42.5877 42.0937 42.5934C41.7369 42.603 41.3832 42.6124 41.0629 42.5196C40.6294 42.3913 40.2285 42.3736 39.7977 42.3545H39.7976C39.7098 42.3507 39.6208 42.3467 39.5299 42.3418C39.4522 42.3395 39.3718 42.3273 39.2908 42.315C39.0584 42.2797 38.8201 42.2435 38.619 42.438C38.5925 42.4613 38.4805 42.4496 38.4304 42.4234C37.9734 42.1697 37.4895 42.1715 37.0022 42.1734C36.6217 42.1748 36.2392 42.1763 35.8656 42.0561C35.4587 41.9239 35.0412 41.8124 34.6223 41.7006C34.1549 41.5758 33.6858 41.4506 33.2272 41.2954C33.1693 41.2765 33.1127 41.2519 33.0559 41.2272C32.8842 41.1526 32.711 41.0773 32.4961 41.1584C32.3959 41.1963 32.1483 41.1117 32.0539 41.0126C31.7372 40.6886 31.3428 40.5102 30.9487 40.3319C30.7046 40.2215 30.4605 40.1111 30.2351 39.9662C30.0585 39.8529 29.8753 39.7479 29.6916 39.6426L29.6915 39.6426L29.6914 39.6425C29.3485 39.446 29.0041 39.2486 28.6985 38.9949ZM27.7968 48.4601C27.7199 48.3931 27.643 48.3262 27.5656 48.2599C27.8047 48.3133 28.0443 48.3608 28.2835 48.4017C28.6458 48.4649 29.0108 48.4975 29.375 48.53C29.6657 48.5559 29.956 48.5818 30.2439 48.6232L30.528 48.6653C31.4966 48.8089 32.4612 48.9519 33.4306 49.0634C34.1971 49.1508 34.9636 49.2383 35.73 49.2762C35.8689 49.2827 36.038 49.2529 36.1939 49.2254L36.194 49.2254L36.194 49.2254C36.3857 49.1915 36.5576 49.1612 36.6292 49.2062C36.9558 49.418 37.3144 49.4171 37.6678 49.4162H37.6679C37.8057 49.4158 37.9426 49.4155 38.0766 49.4277C38.8661 49.512 39.6541 49.4688 40.4396 49.4258L40.4397 49.4257C40.7688 49.4077 41.0974 49.3897 41.4255 49.3811L45.5341 49.2762L46.9057 49.2412C47.5475 49.2187 48.1883 49.1672 48.8291 49.1157C50.016 49.0203 51.2032 48.9249 52.3977 49.0138C52.712 49.0385 53.0438 48.9935 53.3757 48.9485C53.5139 48.9297 53.6522 48.911 53.7892 48.8972C53.9529 48.8822 54.1213 48.8562 54.2893 48.8302L54.2894 48.8302C54.6416 48.7758 54.9922 48.7216 55.2956 48.769C55.6 48.8173 55.841 48.7519 56.078 48.6876C56.2128 48.651 56.3463 48.6147 56.4895 48.5999C58.8125 48.3434 61.1237 47.9645 63.4378 47.5564C64.5787 47.3524 65.7077 47.058 66.8368 46.749C67.3349 46.6097 67.8325 46.4716 68.3303 46.3335C68.0415 46.6188 67.7502 46.9014 67.4588 47.1833C67.2093 47.4231 66.9692 47.6719 66.729 47.9206L66.7288 47.9209C66.1604 48.5097 65.5921 49.0985 64.9 49.5677C64.7673 49.658 64.6435 49.76 64.5256 49.8708C64.4107 49.9699 64.2986 50.0748 64.1896 50.1827C63.9773 50.4013 63.7474 50.6199 63.4968 50.8065C63.1455 51.069 62.7647 51.2824 62.386 51.4946L62.3856 51.4948C62.2432 51.5746 62.1011 51.6543 61.9609 51.7363C61.6468 51.9106 61.3379 52.0985 61.0302 52.2858C60.9365 52.3428 60.8429 52.3998 60.7493 52.4562C60.6335 52.5285 60.5219 52.6061 60.4102 52.6838C60.337 52.7347 60.2638 52.7856 60.1892 52.8352C60.1426 52.8654 60.0964 52.8967 60.0501 52.928C59.9088 53.0237 59.7668 53.1198 59.6114 53.1879C58.9451 53.5172 58.2347 53.7504 57.5242 53.969C57.3609 54.0173 57.1965 54.0596 57.0315 54.1021C56.9374 54.1263 56.8432 54.1506 56.7489 54.176C56.6305 54.2066 56.5115 54.2341 56.3925 54.2617C56.2507 54.2946 56.1088 54.3274 55.9677 54.3655C55.8802 54.389 55.7799 54.4465 55.6854 54.5008C55.557 54.5745 55.4392 54.6422 55.3781 54.6103C55.1199 54.4694 54.882 54.5174 54.6471 54.5647C54.5467 54.5849 54.4469 54.6051 54.3463 54.6103C53.9997 54.618 53.6576 54.6622 53.3141 54.7066L53.179 54.724L52.5953 54.7998C52.3977 54.8231 52.1855 54.8406 51.9821 54.8522C50.6319 54.9251 49.2729 54.8989 47.9198 54.8668C47.506 54.8579 47.0911 54.8683 46.6759 54.8786H46.6758H46.6756H46.6754C45.7273 54.9022 44.7778 54.9258 43.8369 54.7211C43.6139 54.6734 43.3745 54.6866 43.1345 54.6999H43.1345H43.1344H43.1344C43.0222 54.7061 42.91 54.7123 42.7992 54.7123C42.686 54.7123 42.5682 54.7207 42.4509 54.7291C42.1772 54.7486 41.9059 54.768 41.6996 54.6803C41.4991 54.602 41.3285 54.6283 41.1604 54.6541C41.0592 54.6696 40.9589 54.685 40.8536 54.6773C39.2234 54.5462 37.5931 54.2489 36.072 53.6426L35.9022 53.5759L35.9021 53.5759C35.2094 53.3041 34.5144 53.0314 33.8522 52.6865C33.1417 52.3134 32.4608 51.8558 31.9095 51.2699C31.6117 50.9493 31.1931 50.5499 30.6419 50.4829C30.2721 50.0996 29.8193 49.8416 29.366 49.5833C29.0748 49.4173 28.7833 49.2513 28.5135 49.0517C28.2657 48.8682 28.0314 48.6642 27.7969 48.4601L27.7968 48.4601ZM27.2485 50.9216L27.2486 50.9215L27.2487 50.9215C27.3586 50.8562 27.4686 50.791 27.58 50.7271C27.656 50.7671 27.7341 50.8044 27.8148 50.8385C27.8708 50.8618 27.9268 50.9085 27.9622 50.9551C28.005 51.0106 28.0433 51.0709 28.0813 51.1309C28.1533 51.2445 28.2245 51.3569 28.3248 51.4331C28.4227 51.5078 28.5417 51.5538 28.6611 51.6001C28.761 51.6388 28.8612 51.6776 28.9498 51.7334C29.0397 51.7912 29.1271 51.874 29.2127 51.9551C29.3515 52.0868 29.4858 52.214 29.6189 52.2231C30.0877 52.2551 30.4001 52.567 30.6271 52.8439C31.0204 53.341 31.5491 53.6522 32.0746 53.9616C32.2425 54.0604 32.4101 54.159 32.5728 54.2634C32.8031 54.4145 33.0524 54.5303 33.3016 54.646L33.3016 54.646C33.6966 54.8294 34.0912 55.0126 34.4094 55.3361C34.5037 55.4323 34.7513 55.5256 34.8545 55.4877C35.0812 55.4053 35.2661 55.4863 35.4478 55.5658L35.4478 55.5659C35.4977 55.5877 35.5472 55.6094 35.5974 55.6276C36.0875 55.7923 36.5893 55.9213 37.0889 56.0497L37.0891 56.0497L37.0892 56.0497L37.0893 56.0498C37.4911 56.153 37.8914 56.2559 38.283 56.3767C38.4982 56.4379 38.7193 56.47 38.9404 56.4787C39.0671 56.4804 39.1948 56.4782 39.3218 56.4761C39.4164 56.4745 39.5105 56.4729 39.6036 56.4729C40.0458 56.4583 40.4703 56.4787 40.8978 56.6857C40.9479 56.7119 41.0658 56.7236 41.0894 56.6973C41.294 56.4905 41.5477 56.5195 41.7938 56.5476C41.8667 56.5559 41.939 56.5642 42.0092 56.5662L42.0973 56.5661C42.5846 56.5656 43.056 56.5652 43.5509 56.6944C43.8803 56.7809 44.2425 56.7617 44.6072 56.7423C44.8203 56.731 45.0343 56.7197 45.2431 56.7294C45.5046 56.742 45.7655 56.773 46.0264 56.8039C46.3065 56.8372 46.5865 56.8704 46.8674 56.881C47.5896 56.9072 48.3148 56.8984 49.04 56.881L49.0955 56.88L49.1421 56.8794C49.3705 56.8766 49.5924 56.8739 49.8389 56.7673C50.1278 56.6419 50.5553 56.6303 50.9031 56.8139C50.9768 56.8518 51.1213 56.9014 51.1449 56.878C51.3645 56.6563 51.6386 56.6838 51.9017 56.7102C51.974 56.7174 52.0455 56.7246 52.1147 56.7265C52.3199 56.7352 52.5155 56.6841 52.7112 56.6331C52.8416 56.599 52.972 56.565 53.1053 56.5487C53.3735 56.5224 53.6388 56.5166 53.9071 56.5224C54.0133 56.5259 54.1201 56.5321 54.2272 56.5383C54.3906 56.5478 54.5552 56.5574 54.7207 56.5574C54.9094 56.5603 55.0981 56.5545 55.2897 56.5428C55.4784 56.5253 55.67 56.4933 55.8586 56.4612C56.224 56.4052 56.584 56.2981 56.9333 56.1941L56.9334 56.1941L56.9334 56.194L56.9759 56.1814C57.3208 56.0765 57.6628 56.0182 58.0136 55.9628C58.3585 55.8899 58.7093 55.8083 59.0424 55.6247C59.4254 55.4119 59.842 55.2434 60.2621 55.0735C60.6763 54.906 61.094 54.737 61.4863 54.5229C62.1706 54.1351 62.797 53.6658 63.4197 53.1993L63.4198 53.1993C63.5133 53.1293 63.6067 53.0593 63.7002 52.9897L63.9058 52.832L63.9058 52.832L63.9058 52.8319L63.9059 52.8319C64.5663 52.3259 65.2272 51.8195 65.8227 51.2174C65.9087 51.1257 66.0259 51.0636 66.1402 51.0099C66.4496 51.1866 66.7951 51.3243 67.1346 51.4594C68.4228 51.9636 69.6816 52.5612 70.6986 53.252C71.1939 53.5901 71.5329 54.106 71.5565 54.4471C71.5721 54.4986 71.5703 54.5451 71.5687 54.589C71.5675 54.6194 71.5664 54.6486 71.5712 54.6773C71.5583 54.7001 71.5559 54.7214 71.5534 54.7434C71.5507 54.7665 71.548 54.7904 71.5329 54.8173C71.5299 54.8289 71.5299 54.8435 71.5299 54.8581C71.5274 54.8643 71.5239 54.871 71.5202 54.878C71.5151 54.8875 71.5098 54.8975 71.5064 54.9076C71.4977 54.9248 71.4933 54.9419 71.4886 54.9601C71.4837 54.979 71.4786 54.999 71.468 55.0213C71.4439 55.059 71.4264 55.0993 71.4078 55.1419L71.4078 55.142C71.3833 55.1983 71.3571 55.2585 71.3118 55.3215C71.2853 55.3682 71.2381 55.4119 71.1909 55.4381C71.117 55.4701 71.0409 55.4945 70.9649 55.5187C70.847 55.5565 70.7296 55.594 70.622 55.6596C70.5386 55.7199 70.4582 55.7971 70.3751 55.8769L70.375 55.8769C70.2731 55.9748 70.1673 56.0765 70.0471 56.1552C69.9248 56.2257 69.7738 56.281 69.6285 56.3343L69.5607 56.3592C69.3897 56.4175 69.2394 56.4787 69.1627 56.5749C68.8267 56.9946 68.2813 57.1258 67.8745 57.1549C67.3104 57.1958 66.7745 57.3338 66.2385 57.4718C65.8557 57.5704 65.4729 57.6689 65.0798 57.7321C64.8428 57.7707 64.6058 57.8251 64.368 57.8797C63.7806 58.0144 63.1885 58.1502 62.58 58.0527C62.4237 58.0265 62.1171 58.0819 62.0346 58.1693C61.8493 58.364 61.6094 58.3859 61.372 58.4076C61.3073 58.4135 61.2428 58.4194 61.1797 58.4287C61.0269 58.453 60.8738 58.478 60.7205 58.5029L60.7133 58.5041L60.7105 58.5046C59.7639 58.6587 58.8088 58.8143 57.8603 58.8368C57.4415 58.8471 57.0341 58.9427 56.6281 59.0379L56.628 59.0379C55.9994 59.1854 55.374 59.3321 54.7148 59.1604C54.65 59.1429 54.5114 59.1487 54.4849 59.1778C54.2672 59.4158 53.9497 59.4141 53.646 59.4126C53.5591 59.4121 53.4732 59.4117 53.3912 59.4169L53.3413 59.4204C52.7071 59.4659 52.0858 59.5105 51.4308 59.4139C51.0218 59.3534 50.5786 59.393 50.1316 59.4329H50.1316H50.1315H50.1314H50.1314H50.1313H50.1313C49.8471 59.4583 49.5613 59.4839 49.2818 59.4839C48.9309 59.4854 48.5808 59.465 48.2306 59.4446H48.2306H48.2306H48.2305H48.2305H48.2305H48.2304C47.8923 59.4249 47.5541 59.4052 47.2153 59.4052C46.524 59.403 45.8344 59.4206 45.1465 59.4381C44.9191 59.4439 44.6918 59.4497 44.4648 59.4547C44.422 59.4555 44.3795 59.4559 44.3372 59.4563L44.3366 59.4563C44.0495 59.4591 43.7698 59.4618 43.4566 59.5684C43.0881 59.6908 42.5486 59.6938 42.1124 59.5043C42.021 59.4606 41.8382 59.4052 41.8087 59.4285C41.5166 59.6445 41.1614 59.6033 40.8216 59.5639L40.8215 59.5639L40.8214 59.5639C40.7395 59.5543 40.6584 59.5449 40.5794 59.5393C40.3312 59.5212 40.1008 59.5561 39.8746 59.5905H39.8745H39.8745H39.8745H39.8744H39.8744H39.8744C39.7003 59.6169 39.5286 59.6429 39.3531 59.6442C38.7599 59.6602 38.1765 59.5421 37.5917 59.4237L37.4281 59.3906C36.56 59.2149 35.6372 59.1616 34.7394 59.1097H34.7393L34.7071 59.1079C34.3032 59.0859 33.9196 59.0013 33.5332 58.9161C33.0988 58.8202 32.6609 58.7236 32.1866 58.7144C31.435 58.6996 30.6726 58.5237 29.9162 58.3492C29.6253 58.2821 29.3352 58.2151 29.047 58.1576C28.841 58.1165 28.6348 58.0765 28.4287 58.0366L28.4277 58.0364H28.4277C27.5841 57.8729 26.7422 57.7098 25.9252 57.4639C24.8816 57.1491 23.8852 56.7061 22.9713 56.2251C22.7972 56.1347 22.6733 55.9771 22.5653 55.8396C22.4575 55.7024 22.3654 55.5853 22.255 55.5751C22.0132 55.5576 21.8599 55.4439 21.7155 55.3215C21.6675 55.2696 21.6231 55.2159 21.5795 55.1632L21.5794 55.1631L21.5416 55.1175C21.5148 55.0841 21.4941 55.0507 21.474 55.0182L21.474 55.0182C21.452 54.9827 21.4307 54.9483 21.403 54.9164C21.354 54.8644 21.3274 54.8124 21.3011 54.761C21.2846 54.7289 21.2683 54.6971 21.2468 54.6657C21.2329 54.6417 21.2262 54.6187 21.2194 54.5956C21.2168 54.5869 21.2143 54.5781 21.2113 54.5693C21.2088 54.5617 21.2059 54.554 21.2025 54.5462C21.1993 54.5322 21.1936 54.5178 21.1879 54.5034C21.1781 54.4786 21.1682 54.4535 21.1701 54.4296V54.4296C21.1672 54.3917 21.1642 54.3538 21.1554 54.3159C21.148 54.2922 21.1521 54.2742 21.1563 54.2562C21.1588 54.2454 21.1613 54.2347 21.1613 54.2226C21.1545 54.1876 21.1681 54.1515 21.182 54.1145C21.1924 54.087 21.203 54.0589 21.2055 54.0303C21.3352 53.7475 21.7007 53.4036 22.1341 53.1237L22.1311 53.1325C23.1334 52.4825 24.404 52.0074 25.6746 51.6576C26.2779 51.4978 26.7621 51.2104 27.2482 50.9218L27.2485 50.9216ZM67.427 59.2768C66.7354 59.4087 66.0532 59.5557 65.3747 59.7019L65.3746 59.7019L65.3745 59.702L65.3745 59.702C64.1772 59.9599 62.9913 60.2155 61.784 60.3817C59.5583 60.6761 57.3356 60.9617 55.1069 61.1308C54.9704 61.1412 54.8427 61.1716 54.714 61.2022C54.4841 61.2568 54.2512 61.3122 53.9602 61.2561C53.6638 61.1971 53.3142 61.2404 52.9637 61.2838C52.8121 61.3026 52.6604 61.3213 52.5127 61.3319C52.3732 61.3401 52.2316 61.3547 52.0899 61.3692H52.0898H52.0898H52.0897H52.0897H52.0897C51.7794 61.4011 51.4686 61.4329 51.1773 61.3989C50.0335 61.268 48.8934 61.3261 47.7531 61.3842L47.7529 61.3842C47.1416 61.4153 46.5302 61.4465 45.9182 61.4485C45.0476 61.4441 44.1749 61.4391 43.3025 61.434L43.2961 61.4339L43.2899 61.4339L43.284 61.4339C42.4107 61.4288 41.5378 61.4237 40.6679 61.4193C40.3579 61.4193 40.0472 61.428 39.7361 61.4367C38.9789 61.4577 38.2189 61.4789 37.4605 61.3756C37.3332 61.3601 37.2025 61.3569 37.0709 61.3538C36.733 61.3456 36.3893 61.3373 36.0838 61.1191C36.0169 61.0724 35.8509 61.0987 35.6654 61.1282C35.5156 61.152 35.3531 61.1778 35.22 61.1687C34.486 61.1133 33.7549 61.0113 33.0268 60.9063C32.2522 60.7995 31.4793 60.6654 30.7069 60.5314L30.7067 60.5314L30.7043 60.5309L30.7018 60.5305C30.4646 60.4894 30.2275 60.4482 29.9904 60.4079C29.7117 60.3617 29.4294 60.3317 29.1461 60.3016L29.1461 60.3016L29.146 60.3016L29.146 60.3016L29.1459 60.3015L29.1458 60.3015L29.1456 60.3015H29.1455C28.8029 60.2651 28.4589 60.2285 28.1184 60.1631C27.8772 60.1175 27.6355 60.0651 27.3947 60.0062C27.6628 60.2149 27.9527 60.3902 28.242 60.5651C28.6932 60.8379 29.1431 61.1099 29.5069 61.5068C30.0611 61.5942 30.4679 61.9936 30.7893 62.3696C31.8594 63.6346 33.3835 64.3546 34.8545 65.0279C36.3579 65.7216 37.9852 66.1384 39.6272 66.3571C39.7355 66.3751 39.8402 66.3635 39.9463 66.3518C40.1148 66.3331 40.2868 66.3141 40.4821 66.4124C40.6325 66.4853 40.8094 66.497 40.9951 66.497C41.0747 66.497 41.1566 66.4948 41.24 66.4925L41.2403 66.4925C41.3482 66.4896 41.4586 66.4866 41.5699 66.4882C41.6816 66.4919 41.795 66.4894 41.9084 66.487C42.1514 66.4816 42.3943 66.4763 42.6194 66.5319C43.5602 66.766 44.518 66.7738 45.4741 66.7816C45.8991 66.785 46.3238 66.7885 46.7465 66.8118C48.1144 66.8876 49.4911 66.9575 50.8589 66.9284C51.2473 66.9204 51.6174 66.889 51.9806 66.8582C52.4169 66.8212 52.8432 66.785 53.2792 66.7914C53.3867 66.7932 53.4936 66.776 53.6011 66.7587C53.8354 66.7211 54.0721 66.683 54.3228 66.8409C54.3819 66.875 54.4979 66.814 54.6257 66.7468C54.7272 66.6935 54.8361 66.6362 54.93 66.6194C55.0902 66.5868 55.2509 66.5559 55.4117 66.5249C55.7835 66.4533 56.1556 66.3816 56.5219 66.29C57.2501 66.1006 57.9812 65.8994 58.668 65.5905C58.8803 65.503 59.0778 65.3864 59.2694 65.2611C59.3972 65.1775 59.5275 65.0991 59.6579 65.0208C59.7231 64.9816 59.7883 64.9424 59.8531 64.9026C59.9999 64.8142 60.1513 64.7335 60.3028 64.6527L60.303 64.6526L60.3032 64.6525L60.3033 64.6524L60.3035 64.6523L60.3044 64.6518C60.3623 64.6209 60.4203 64.59 60.4781 64.5586C60.6844 64.442 60.8967 64.3283 61.1089 64.2234C61.3023 64.116 61.502 64.0166 61.7022 63.9168L61.7024 63.9167C61.7739 63.8811 61.8454 63.8455 61.9167 63.8095C61.9716 63.7784 62.0269 63.7475 62.0824 63.7166C62.2917 63.5998 62.5027 63.482 62.7008 63.346C62.9544 63.1624 63.2079 62.9555 63.429 62.7398C63.6589 62.5299 63.8918 62.3346 64.166 62.151C64.8851 61.6955 65.4834 61.1132 66.0806 60.532L66.0807 60.5318C66.3281 60.2911 66.5753 60.0505 66.8309 59.8191C67.03 59.6389 67.2289 59.4583 67.427 59.2768Z" fill="#F8FB69"/>
</svg>
